<svg width="200" height="200" viewBox="0 0 200 200" fill="none" xmlns="http://www.w3.org/2000/svg">
<path d="M68.9659 0H62.0693V6.89655H68.9659V0Z" fill="black"/>
<path d="M103.448 0H96.5518V6.89655H103.448V0Z" fill="black"/>
<path d="M124.138 0H117.241V6.89655H124.138V0Z" fill="black"/>
<path d="M131.034 0H124.138V6.89655H131.034V0Z" fill="black"/>
<path d="M137.931 0H131.034V6.89655H137.931V0Z" fill="black"/>
<path d="M62.0694 6.89655H55.1729V13.7931H62.0694V6.89655Z" fill="black"/>
<path d="M68.9659 6.89655H62.0693V13.7931H68.9659V6.89655Z" fill="black"/>
<path d="M75.8624 6.89655H68.9658V13.7931H75.8624V6.89655Z" fill="black"/>
<path d="M89.6553 6.89655H82.7588V13.7931H89.6553V6.89655Z" fill="black"/>
<path d="M96.5518 6.89655H89.6553V13.7931H96.5518V6.89655Z" fill="black"/>
<path d="M137.931 6.89655H131.034V13.7931H137.931V6.89655Z" fill="black"/>
<path d="M75.8624 13.7931H68.9658V20.6896H75.8624V13.7931Z" fill="black"/>
<path d="M82.7589 13.7931H75.8623V20.6896H82.7589V13.7931Z" fill="black"/>
<path d="M89.6553 13.7931H82.7588V20.6896H89.6553V13.7931Z" fill="black"/>
<path d="M110.345 13.7931H103.448V20.6896H110.345V13.7931Z" fill="black"/>
<path d="M131.034 13.7931H124.138V20.6896H131.034V13.7931Z" fill="black"/>
<path d="M137.931 13.7931H131.034V20.6896H137.931V13.7931Z" fill="black"/>
<path d="M68.9659 20.6897H62.0693V27.5862H68.9659V20.6897Z" fill="black"/>
<path d="M75.8624 20.6897H68.9658V27.5862H75.8624V20.6897Z" fill="black"/>
<path d="M82.7589 20.6897H75.8623V27.5862H82.7589V20.6897Z" fill="black"/>
<path d="M96.5518 20.6897H89.6553V27.5862H96.5518V20.6897Z" fill="black"/>
<path d="M117.241 20.6897H110.345V27.5862H117.241V20.6897Z" fill="black"/>
<path d="M137.931 20.6897H131.034V27.5862H137.931V20.6897Z" fill="black"/>
<path d="M62.0694 27.5862H55.1729V34.4828H62.0694V27.5862Z" fill="black"/>
<path d="M68.9659 27.5862H62.0693V34.4828H68.9659V27.5862Z" fill="black"/>
<path d="M75.8624 27.5862H68.9658V34.4828H75.8624V27.5862Z" fill="black"/>
<path d="M82.7589 27.5862H75.8623V34.4828H82.7589V27.5862Z" fill="black"/>
<path d="M96.5518 27.5862H89.6553V34.4828H96.5518V27.5862Z" fill="black"/>
<path d="M117.241 27.5862H110.345V34.4828H117.241V27.5862Z" fill="black"/>
<path d="M131.034 27.5862H124.138V34.4828H131.034V27.5862Z" fill="black"/>
<path d="M82.7589 34.4828H75.8623V41.3793H82.7589V34.4828Z" fill="black"/>
<path d="M103.448 34.4828H96.5518V41.3793H103.448V34.4828Z" fill="black"/>
<path d="M110.345 34.4828H103.448V41.3793H110.345V34.4828Z" fill="black"/>
<path d="M117.241 34.4828H110.345V41.3793H117.241V34.4828Z" fill="black"/>
<path d="M124.138 34.4828H117.241V41.3793H124.138V34.4828Z" fill="black"/>
<path d="M131.034 34.4828H124.138V41.3793H131.034V34.4828Z" fill="black"/>
<path d="M137.931 34.4828H131.034V41.3793H137.931V34.4828Z" fill="black"/>
<path d="M144.827 34.4828H137.931V41.3793H144.827V34.4828Z" fill="black"/>
<path d="M62.0694 41.3793H55.1729V48.2759H62.0694V41.3793Z" fill="black"/>
<path d="M103.448 41.3793H96.5518V48.2759H103.448V41.3793Z" fill="black"/>
<path d="M117.241 41.3793H110.345V48.2759H117.241V41.3793Z" fill="black"/>
<path d="M131.034 41.3793H124.138V48.2759H131.034V41.3793Z" fill="black"/>
<path d="M144.827 41.3793H137.931V48.2759H144.827V41.3793Z" fill="black"/>
<path d="M75.8624 48.2759H68.9658V55.1724H75.8624V48.2759Z" fill="black"/>
<path d="M89.6553 48.2759H82.7588V55.1724H89.6553V48.2759Z" fill="black"/>
<path d="M110.345 48.2759H103.448V55.1724H110.345V48.2759Z" fill="black"/>
<path d="M124.138 48.2759H117.241V55.1724H124.138V48.2759Z" fill="black"/>
<path d="M144.827 48.2759H137.931V55.1724H144.827V48.2759Z" fill="black"/>
<path d="M6.89655 55.1724H0V62.069H6.89655V55.1724Z" fill="black"/>
<path d="M20.6895 55.1724H13.793V62.069H20.6895V55.1724Z" fill="black"/>
<path d="M34.4825 55.1724H27.5859V62.069H34.4825V55.1724Z" fill="black"/>
<path d="M48.2755 55.1724H41.3789V62.069H48.2755V55.1724Z" fill="black"/>
<path d="M68.9659 55.1724H62.0693V62.069H68.9659V55.1724Z" fill="black"/>
<path d="M89.6553 55.1724H82.7588V62.069H89.6553V55.1724Z" fill="black"/>
<path d="M117.241 55.1724H110.345V62.069H117.241V55.1724Z" fill="black"/>
<path d="M124.138 55.1724H117.241V62.069H124.138V55.1724Z" fill="black"/>
<path d="M137.931 55.1724H131.034V62.069H137.931V55.1724Z" fill="black"/>
<path d="M144.827 55.1724H137.931V62.069H144.827V55.1724Z" fill="black"/>
<path d="M172.414 55.1724H165.518V62.069H172.414V55.1724Z" fill="black"/>
<path d="M193.104 55.1724H186.207V62.069H193.104V55.1724Z" fill="black"/>
<path d="M13.793 62.069H6.89648V68.9655H13.793V62.069Z" fill="black"/>
<path d="M27.586 62.069H20.6895V68.9655H27.586V62.069Z" fill="black"/>
<path d="M41.379 62.069H34.4824V68.9655H41.379V62.069Z" fill="black"/>
<path d="M62.0694 62.069H55.1729V68.9655H62.0694V62.069Z" fill="black"/>
<path d="M68.9659 62.069H62.0693V68.9655H68.9659V62.069Z" fill="black"/>
<path d="M82.7589 62.069H75.8623V68.9655H82.7589V62.069Z" fill="black"/>
<path d="M96.5518 62.069H89.6553V68.9655H96.5518V62.069Z" fill="black"/>
<path d="M110.345 62.069H103.448V68.9655H110.345V62.069Z" fill="black"/>
<path d="M117.241 62.069H110.345V68.9655H117.241V62.069Z" fill="black"/>
<path d="M151.724 62.069H144.827V68.9655H151.724V62.069Z" fill="black"/>
<path d="M158.621 62.069H151.725V68.9655H158.621V62.069Z" fill="black"/>
<path d="M165.518 62.069H158.621V68.9655H165.518V62.069Z" fill="black"/>
<path d="M179.311 62.069H172.414V68.9655H179.311V62.069Z" fill="black"/>
<path d="M200 62.069H193.104V68.9655H200V62.069Z" fill="black"/>
<path d="M6.89655 68.9655H0V75.8621H6.89655V68.9655Z" fill="black"/>
<path d="M20.6895 68.9655H13.793V75.8621H20.6895V68.9655Z" fill="black"/>
<path d="M27.586 68.9655H20.6895V75.8621H27.586V68.9655Z" fill="black"/>
<path d="M48.2755 68.9655H41.3789V75.8621H48.2755V68.9655Z" fill="black"/>
<path d="M62.0694 68.9655H55.1729V75.8621H62.0694V68.9655Z" fill="black"/>
<path d="M103.448 68.9655H96.5518V75.8621H103.448V68.9655Z" fill="black"/>
<path d="M110.345 68.9655H103.448V75.8621H110.345V68.9655Z" fill="black"/>
<path d="M117.241 68.9655H110.345V75.8621H117.241V68.9655Z" fill="black"/>
<path d="M165.518 68.9655H158.621V75.8621H165.518V68.9655Z" fill="black"/>
<path d="M172.414 68.9655H165.518V75.8621H172.414V68.9655Z" fill="black"/>
<path d="M186.207 68.9655H179.311V75.8621H186.207V68.9655Z" fill="black"/>
<path d="M193.104 68.9655H186.207V75.8621H193.104V68.9655Z" fill="black"/>
<path d="M200 68.9655H193.104V75.8621H200V68.9655Z" fill="black"/>
<path d="M6.89655 75.8621H0V82.7586H6.89655V75.8621Z" fill="black"/>
<path d="M20.6895 75.8621H13.793V82.7586H20.6895V75.8621Z" fill="black"/>
<path d="M34.4825 75.8621H27.5859V82.7586H34.4825V75.8621Z" fill="black"/>
<path d="M41.379 75.8621H34.4824V82.7586H41.379V75.8621Z" fill="black"/>
<path d="M55.1719 75.8621H48.2754V82.7586H55.1719V75.8621Z" fill="black"/>
<path d="M62.0694 75.8621H55.1729V82.7586H62.0694V75.8621Z" fill="black"/>
<path d="M75.8624 75.8621H68.9658V82.7586H75.8624V75.8621Z" fill="black"/>
<path d="M82.7589 75.8621H75.8623V82.7586H82.7589V75.8621Z" fill="black"/>
<path d="M89.6553 75.8621H82.7588V82.7586H89.6553V75.8621Z" fill="black"/>
<path d="M96.5518 75.8621H89.6553V82.7586H96.5518V75.8621Z" fill="black"/>
<path d="M103.448 75.8621H96.5518V82.7586H103.448V75.8621Z" fill="black"/>
<path d="M117.241 75.8621H110.345V82.7586H117.241V75.8621Z" fill="black"/>
<path d="M124.138 75.8621H117.241V82.7586H124.138V75.8621Z" fill="black"/>
<path d="M193.104 75.8621H186.207V82.7586H193.104V75.8621Z" fill="black"/>
<path d="M6.89655 82.7586H0V89.6552H6.89655V82.7586Z" fill="black"/>
<path d="M20.6895 82.7586H13.793V89.6552H20.6895V82.7586Z" fill="black"/>
<path d="M27.586 82.7586H20.6895V89.6552H27.586V82.7586Z" fill="black"/>
<path d="M48.2755 82.7586H41.3789V89.6552H48.2755V82.7586Z" fill="black"/>
<path d="M75.8624 82.7586H68.9658V89.6552H75.8624V82.7586Z" fill="black"/>
<path d="M82.7589 82.7586H75.8623V89.6552H82.7589V82.7586Z" fill="black"/>
<path d="M89.6553 82.7586H82.7588V89.6552H89.6553V82.7586Z" fill="black"/>
<path d="M103.448 82.7586H96.5518V89.6552H103.448V82.7586Z" fill="black"/>
<path d="M110.345 82.7586H103.448V89.6552H110.345V82.7586Z" fill="black"/>
<path d="M124.138 82.7586H117.241V89.6552H124.138V82.7586Z" fill="black"/>
<path d="M151.724 82.7586H144.827V89.6552H151.724V82.7586Z" fill="black"/>
<path d="M158.621 82.7586H151.725V89.6552H158.621V82.7586Z" fill="black"/>
<path d="M179.311 82.7586H172.414V89.6552H179.311V82.7586Z" fill="black"/>
<path d="M193.104 82.7586H186.207V89.6552H193.104V82.7586Z" fill="black"/>
<path d="M200 82.7586H193.104V89.6552H200V82.7586Z" fill="black"/>
<path d="M6.89655 89.6552H0V96.5517H6.89655V89.6552Z" fill="black"/>
<path d="M41.379 89.6552H34.4824V96.5517H41.379V89.6552Z" fill="black"/>
<path d="M62.0694 89.6552H55.1729V96.5517H62.0694V89.6552Z" fill="black"/>
<path d="M68.9659 89.6552H62.0693V96.5517H68.9659V89.6552Z" fill="black"/>
<path d="M75.8624 89.6552H68.9658V96.5517H75.8624V89.6552Z" fill="black"/>
<path d="M89.6553 89.6552H82.7588V96.5517H89.6553V89.6552Z" fill="black"/>
<path d="M103.448 89.6552H96.5518V96.5517H103.448V89.6552Z" fill="black"/>
<path d="M110.345 89.6552H103.448V96.5517H110.345V89.6552Z" fill="black"/>
<path d="M124.138 89.6552H117.241V96.5517H124.138V89.6552Z" fill="black"/>
<path d="M144.827 89.6552H137.931V96.5517H144.827V89.6552Z" fill="black"/>
<path d="M151.724 89.6552H144.827V96.5517H151.724V89.6552Z" fill="black"/>
<path d="M158.621 89.6552H151.725V96.5517H158.621V89.6552Z" fill="black"/>
<path d="M179.311 89.6552H172.414V96.5517H179.311V89.6552Z" fill="black"/>
<path d="M200 89.6552H193.104V96.5517H200V89.6552Z" fill="black"/>
<path d="M41.379 96.5518H34.4824V103.448H41.379V96.5518Z" fill="black"/>
<path d="M48.2755 96.5518H41.3789V103.448H48.2755V96.5518Z" fill="black"/>
<path d="M82.7589 96.5518H75.8623V103.448H82.7589V96.5518Z" fill="black"/>
<path d="M89.6553 96.5518H82.7588V103.448H89.6553V96.5518Z" fill="black"/>
<path d="M96.5518 96.5518H89.6553V103.448H96.5518V96.5518Z" fill="black"/>
<path d="M151.724 96.5518H144.827V103.448H151.724V96.5518Z" fill="black"/>
<path d="M179.311 96.5518H172.414V103.448H179.311V96.5518Z" fill="black"/>
<path d="M193.104 96.5518H186.207V103.448H193.104V96.5518Z" fill="black"/>
<path d="M200 96.5518H193.104V103.448H200V96.5518Z" fill="black"/>
<path d="M6.89655 103.448H0V110.345H6.89655V103.448Z" fill="black"/>
<path d="M13.793 103.448H6.89648V110.345H13.793V103.448Z" fill="black"/>
<path d="M20.6895 103.448H13.793V110.345H20.6895V103.448Z" fill="black"/>
<path d="M27.586 103.448H20.6895V110.345H27.586V103.448Z" fill="black"/>
<path d="M55.1719 103.448H48.2754V110.345H55.1719V103.448Z" fill="black"/>
<path d="M68.9659 103.448H62.0693V110.345H68.9659V103.448Z" fill="black"/>
<path d="M75.8624 103.448H68.9658V110.345H75.8624V103.448Z" fill="black"/>
<path d="M89.6553 103.448H82.7588V110.345H89.6553V103.448Z" fill="black"/>
<path d="M110.345 103.448H103.448V110.345H110.345V103.448Z" fill="black"/>
<path d="M124.138 103.448H117.241V110.345H124.138V103.448Z" fill="black"/>
<path d="M144.827 103.448H137.931V110.345H144.827V103.448Z" fill="black"/>
<path d="M172.414 103.448H165.518V110.345H172.414V103.448Z" fill="black"/>
<path d="M179.311 103.448H172.414V110.345H179.311V103.448Z" fill="black"/>
<path d="M193.104 103.448H186.207V110.345H193.104V103.448Z" fill="black"/>
<path d="M34.4825 110.345H27.5859V117.241H34.4825V110.345Z" fill="black"/>
<path d="M48.2755 110.345H41.3789V117.241H48.2755V110.345Z" fill="black"/>
<path d="M89.6553 110.345H82.7588V117.241H89.6553V110.345Z" fill="black"/>
<path d="M117.241 110.345H110.345V117.241H117.241V110.345Z" fill="black"/>
<path d="M137.931 110.345H131.034V117.241H137.931V110.345Z" fill="black"/>
<path d="M144.827 110.345H137.931V117.241H144.827V110.345Z" fill="black"/>
<path d="M151.724 110.345H144.827V117.241H151.724V110.345Z" fill="black"/>
<path d="M158.621 110.345H151.725V117.241H158.621V110.345Z" fill="black"/>
<path d="M179.311 110.345H172.414V117.241H179.311V110.345Z" fill="black"/>
<path d="M193.104 110.345H186.207V117.241H193.104V110.345Z" fill="black"/>
<path d="M200 110.345H193.104V117.241H200V110.345Z" fill="black"/>
<path d="M34.4825 117.241H27.5859V124.138H34.4825V117.241Z" fill="black"/>
<path d="M55.1719 117.241H48.2754V124.138H55.1719V117.241Z" fill="black"/>
<path d="M62.0694 117.241H55.1729V124.138H62.0694V117.241Z" fill="black"/>
<path d="M68.9659 117.241H62.0693V124.138H68.9659V117.241Z" fill="black"/>
<path d="M82.7589 117.241H75.8623V124.138H82.7589V117.241Z" fill="black"/>
<path d="M89.6553 117.241H82.7588V124.138H89.6553V117.241Z" fill="black"/>
<path d="M96.5518 117.241H89.6553V124.138H96.5518V117.241Z" fill="black"/>
<path d="M110.345 117.241H103.448V124.138H110.345V117.241Z" fill="black"/>
<path d="M117.241 117.241H110.345V124.138H117.241V117.241Z" fill="black"/>
<path d="M151.724 117.241H144.827V124.138H151.724V117.241Z" fill="black"/>
<path d="M158.621 117.241H151.725V124.138H158.621V117.241Z" fill="black"/>
<path d="M179.311 117.241H172.414V124.138H179.311V117.241Z" fill="black"/>
<path d="M186.207 117.241H179.311V124.138H186.207V117.241Z" fill="black"/>
<path d="M200 117.241H193.104V124.138H200V117.241Z" fill="black"/>
<path d="M6.89655 124.138H0V131.034H6.89655V124.138Z" fill="black"/>
<path d="M27.586 124.138H20.6895V131.034H27.586V124.138Z" fill="black"/>
<path d="M34.4825 124.138H27.5859V131.034H34.4825V124.138Z" fill="black"/>
<path d="M48.2755 124.138H41.3789V131.034H48.2755V124.138Z" fill="black"/>
<path d="M75.8624 124.138H68.9658V131.034H75.8624V124.138Z" fill="black"/>
<path d="M82.7589 124.138H75.8623V131.034H82.7589V124.138Z" fill="black"/>
<path d="M89.6553 124.138H82.7588V131.034H89.6553V124.138Z" fill="black"/>
<path d="M103.448 124.138H96.5518V131.034H103.448V124.138Z" fill="black"/>
<path d="M110.345 124.138H103.448V131.034H110.345V124.138Z" fill="black"/>
<path d="M117.241 124.138H110.345V131.034H117.241V124.138Z" fill="black"/>
<path d="M151.724 124.138H144.827V131.034H151.724V124.138Z" fill="black"/>
<path d="M158.621 124.138H151.725V131.034H158.621V124.138Z" fill="black"/>
<path d="M165.518 124.138H158.621V131.034H165.518V124.138Z" fill="black"/>
<path d="M172.414 124.138H165.518V131.034H172.414V124.138Z" fill="black"/>
<path d="M193.104 124.138H186.207V131.034H193.104V124.138Z" fill="black"/>
<path d="M200 124.138H193.104V131.034H200V124.138Z" fill="black"/>
<path d="M13.793 131.034H6.89648V137.931H13.793V131.034Z" fill="black"/>
<path d="M20.6895 131.034H13.793V137.931H20.6895V131.034Z" fill="black"/>
<path d="M41.379 131.034H34.4824V137.931H41.379V131.034Z" fill="black"/>
<path d="M55.1719 131.034H48.2754V137.931H55.1719V131.034Z" fill="black"/>
<path d="M75.8624 131.034H68.9658V137.931H75.8624V131.034Z" fill="black"/>
<path d="M96.5518 131.034H89.6553V137.931H96.5518V131.034Z" fill="black"/>
<path d="M103.448 131.034H96.5518V137.931H103.448V131.034Z" fill="black"/>
<path d="M117.241 131.034H110.345V137.931H117.241V131.034Z" fill="black"/>
<path d="M124.138 131.034H117.241V137.931H124.138V131.034Z" fill="black"/>
<path d="M137.931 131.034H131.034V137.931H137.931V131.034Z" fill="black"/>
<path d="M165.518 131.034H158.621V137.931H165.518V131.034Z" fill="black"/>
<path d="M172.414 131.034H165.518V137.931H172.414V131.034Z" fill="black"/>
<path d="M179.311 131.034H172.414V137.931H179.311V131.034Z" fill="black"/>
<path d="M193.104 131.034H186.207V137.931H193.104V131.034Z" fill="black"/>
<path d="M6.89655 137.931H0V144.828H6.89655V137.931Z" fill="black"/>
<path d="M41.379 137.931H34.4824V144.828H41.379V137.931Z" fill="black"/>
<path d="M48.2755 137.931H41.3789V144.828H48.2755V137.931Z" fill="black"/>
<path d="M62.0694 137.931H55.1729V144.828H62.0694V137.931Z" fill="black"/>
<path d="M75.8624 137.931H68.9658V144.828H75.8624V137.931Z" fill="black"/>
<path d="M89.6553 137.931H82.7588V144.828H89.6553V137.931Z" fill="black"/>
<path d="M103.448 137.931H96.5518V144.828H103.448V137.931Z" fill="black"/>
<path d="M110.345 137.931H103.448V144.828H110.345V137.931Z" fill="black"/>
<path d="M117.241 137.931H110.345V144.828H117.241V137.931Z" fill="black"/>
<path d="M124.138 137.931H117.241V144.828H124.138V137.931Z" fill="black"/>
<path d="M131.034 137.931H124.138V144.828H131.034V137.931Z" fill="black"/>
<path d="M137.931 137.931H131.034V144.828H137.931V137.931Z" fill="black"/>
<path d="M144.827 137.931H137.931V144.828H144.827V137.931Z" fill="black"/>
<path d="M151.724 137.931H144.827V144.828H151.724V137.931Z" fill="black"/>
<path d="M158.621 137.931H151.725V144.828H158.621V137.931Z" fill="black"/>
<path d="M165.518 137.931H158.621V144.828H165.518V137.931Z" fill="black"/>
<path d="M172.414 137.931H165.518V144.828H172.414V137.931Z" fill="black"/>
<path d="M62.0694 144.828H55.1729V151.724H62.0694V144.828Z" fill="black"/>
<path d="M68.9659 144.828H62.0693V151.724H68.9659V144.828Z" fill="black"/>
<path d="M82.7589 144.828H75.8623V151.724H82.7589V144.828Z" fill="black"/>
<path d="M103.448 144.828H96.5518V151.724H103.448V144.828Z" fill="black"/>
<path d="M110.345 144.828H103.448V151.724H110.345V144.828Z" fill="black"/>
<path d="M124.138 144.828H117.241V151.724H124.138V144.828Z" fill="black"/>
<path d="M131.034 144.828H124.138V151.724H131.034V144.828Z" fill="black"/>
<path d="M137.931 144.828H131.034V151.724H137.931V144.828Z" fill="black"/>
<path d="M144.827 144.828H137.931V151.724H144.827V144.828Z" fill="black"/>
<path d="M172.414 144.828H165.518V151.724H172.414V144.828Z" fill="black"/>
<path d="M186.207 144.828H179.311V151.724H186.207V144.828Z" fill="black"/>
<path d="M193.104 144.828H186.207V151.724H193.104V144.828Z" fill="black"/>
<path d="M200 144.828H193.104V151.724H200V144.828Z" fill="black"/>
<path d="M89.6553 151.724H82.7588V158.621H89.6553V151.724Z" fill="black"/>
<path d="M96.5518 151.724H89.6553V158.621H96.5518V151.724Z" fill="black"/>
<path d="M117.241 151.724H110.345V158.621H117.241V151.724Z" fill="black"/>
<path d="M131.034 151.724H124.138V158.621H131.034V151.724Z" fill="black"/>
<path d="M137.931 151.724H131.034V158.621H137.931V151.724Z" fill="black"/>
<path d="M144.827 151.724H137.931V158.621H144.827V151.724Z" fill="black"/>
<path d="M158.621 151.724H151.725V158.621H158.621V151.724Z" fill="black"/>
<path d="M172.414 151.724H165.518V158.621H172.414V151.724Z" fill="black"/>
<path d="M179.311 151.724H172.414V158.621H179.311V151.724Z" fill="black"/>
<path d="M193.104 151.724H186.207V158.621H193.104V151.724Z" fill="black"/>
<path d="M200 151.724H193.104V158.621H200V151.724Z" fill="black"/>
<path d="M68.9659 158.621H62.0693V165.517H68.9659V158.621Z" fill="black"/>
<path d="M75.8624 158.621H68.9658V165.517H75.8624V158.621Z" fill="black"/>
<path d="M124.138 158.621H117.241V165.517H124.138V158.621Z" fill="black"/>
<path d="M131.034 158.621H124.138V165.517H131.034V158.621Z" fill="black"/>
<path d="M144.827 158.621H137.931V165.517H144.827V158.621Z" fill="black"/>
<path d="M172.414 158.621H165.518V165.517H172.414V158.621Z" fill="black"/>
<path d="M179.311 158.621H172.414V165.517H179.311V158.621Z" fill="black"/>
<path d="M200 158.621H193.104V165.517H200V158.621Z" fill="black"/>
<path d="M62.0694 165.517H55.1729V172.414H62.0694V165.517Z" fill="black"/>
<path d="M68.9659 165.517H62.0693V172.414H68.9659V165.517Z" fill="black"/>
<path d="M89.6553 165.517H82.7588V172.414H89.6553V165.517Z" fill="black"/>
<path d="M117.241 165.517H110.345V172.414H117.241V165.517Z" fill="black"/>
<path d="M144.827 165.517H137.931V172.414H144.827V165.517Z" fill="black"/>
<path d="M151.724 165.517H144.827V172.414H151.724V165.517Z" fill="black"/>
<path d="M158.621 165.517H151.725V172.414H158.621V165.517Z" fill="black"/>
<path d="M165.518 165.517H158.621V172.414H165.518V165.517Z" fill="black"/>
<path d="M172.414 165.517H165.518V172.414H172.414V165.517Z" fill="black"/>
<path d="M193.104 165.517H186.207V172.414H193.104V165.517Z" fill="black"/>
<path d="M68.9659 172.414H62.0693V179.31H68.9659V172.414Z" fill="black"/>
<path d="M89.6553 172.414H82.7588V179.31H89.6553V172.414Z" fill="black"/>
<path d="M96.5518 172.414H89.6553V179.31H96.5518V172.414Z" fill="black"/>
<path d="M117.241 172.414H110.345V179.31H117.241V172.414Z" fill="black"/>
<path d="M124.138 172.414H117.241V179.31H124.138V172.414Z" fill="black"/>
<path d="M137.931 172.414H131.034V179.31H137.931V172.414Z" fill="black"/>
<path d="M151.724 172.414H144.827V179.31H151.724V172.414Z" fill="black"/>
<path d="M165.518 172.414H158.621V179.31H165.518V172.414Z" fill="black"/>
<path d="M172.414 172.414H165.518V179.31H172.414V172.414Z" fill="black"/>
<path d="M186.207 172.414H179.311V179.31H186.207V172.414Z" fill="black"/>
<path d="M62.0694 179.31H55.1729V186.207H62.0694V179.31Z" fill="black"/>
<path d="M68.9659 179.31H62.0693V186.207H68.9659V179.31Z" fill="black"/>
<path d="M82.7589 179.31H75.8623V186.207H82.7589V179.31Z" fill="black"/>
<path d="M89.6553 179.31H82.7588V186.207H89.6553V179.31Z" fill="black"/>
<path d="M96.5518 179.31H89.6553V186.207H96.5518V179.31Z" fill="black"/>
<path d="M103.448 179.31H96.5518V186.207H103.448V179.31Z" fill="black"/>
<path d="M137.931 179.31H131.034V186.207H137.931V179.31Z" fill="black"/>
<path d="M144.827 179.31H137.931V186.207H144.827V179.31Z" fill="black"/>
<path d="M165.518 179.31H158.621V186.207H165.518V179.31Z" fill="black"/>
<path d="M172.414 179.31H165.518V186.207H172.414V179.31Z" fill="black"/>
<path d="M179.311 179.31H172.414V186.207H179.311V179.31Z" fill="black"/>
<path d="M200 179.31H193.104V186.207H200V179.31Z" fill="black"/>
<path d="M82.7589 186.207H75.8623V193.103H82.7589V186.207Z" fill="black"/>
<path d="M103.448 186.207H96.5518V193.103H103.448V186.207Z" fill="black"/>
<path d="M110.345 186.207H103.448V193.103H110.345V186.207Z" fill="black"/>
<path d="M124.138 186.207H117.241V193.103H124.138V186.207Z" fill="black"/>
<path d="M144.827 186.207H137.931V193.103H144.827V186.207Z" fill="black"/>
<path d="M158.621 186.207H151.725V193.103H158.621V186.207Z" fill="black"/>
<path d="M165.518 186.207H158.621V193.103H165.518V186.207Z" fill="black"/>
<path d="M193.104 186.207H186.207V193.103H193.104V186.207Z" fill="black"/>
<path d="M62.0694 193.103H55.1729V200H62.0694V193.103Z" fill="black"/>
<path d="M89.6553 193.103H82.7588V200H89.6553V193.103Z" fill="black"/>
<path d="M103.448 193.103H96.5518V200H103.448V193.103Z" fill="black"/>
<path d="M124.138 193.103H117.241V200H124.138V193.103Z" fill="black"/>
<path d="M131.034 193.103H124.138V200H131.034V193.103Z" fill="black"/>
<path d="M137.931 193.103H131.034V200H137.931V193.103Z" fill="black"/>
<path d="M144.827 193.103H137.931V200H144.827V193.103Z" fill="black"/>
<path d="M151.724 193.103H144.827V200H151.724V193.103Z" fill="black"/>
<path d="M165.518 193.103H158.621V200H165.518V193.103Z" fill="black"/>
<path d="M193.104 193.103H186.207V200H193.104V193.103Z" fill="black"/>
<path d="M200 193.103H193.104V200H200V193.103Z" fill="black"/>
<path d="M41.0345 0H7.24138H0V7.24138V41.0345V48.2759H7.24138H41.0345H48.2759V41.0345V7.24138V0H41.0345ZM41.0345 41.0345H7.24138V7.24138H41.0345V41.0345Z" fill="black"/>
<path d="M192.759 0H158.966H151.725V7.24138V41.0345V48.2759H158.966H192.759H200V41.0345V7.24138V0H192.759ZM192.759 41.0345H158.966V7.24138H192.759V41.0345Z" fill="black"/>
<path d="M41.0345 151.724H7.24138H0V158.966V192.759V200H7.24138H41.0345H48.2759V192.759V158.966V151.724H41.0345ZM41.0345 192.759H7.24138V158.966H41.0345V192.759Z" fill="black"/>
<path d="M34.4826 13.7931H13.793V34.4827H34.4826V13.7931Z" fill="black"/>
<path d="M186.207 13.7931H165.518V34.4827H186.207V13.7931Z" fill="black"/>
<path d="M34.4826 165.517H13.793V186.207H34.4826V165.517Z" fill="black"/>
</svg>
