<svg width="34" height="32" viewBox="0 0 34 32" fill="none" xmlns="http://www.w3.org/2000/svg">
<path d="M33.2234 12.3811L33.2237 12.381L33.2136 12.2974C33.2135 12.296 33.2134 12.2949 33.2132 12.2935C33.2131 12.2922 33.213 12.2911 33.2127 12.2899L33.1749 11.9757C33.1673 11.9126 33.1586 11.8407 33.1488 11.7587L33.1408 11.6934L33.1247 11.6954C32.727 9.43383 31.6347 7.28759 29.9428 5.45502C28.2589 3.63124 26.0711 2.19125 23.616 1.29074C21.5126 0.519188 19.2807 0.127914 16.9826 0.127914C13.8802 0.127914 10.867 0.857581 8.26918 2.23798C3.25958 4.89972 0.305077 9.79223 0.741755 14.7023C0.96779 17.2431 1.96318 19.6617 3.6204 21.6968C5.18022 23.6122 7.29028 25.158 9.72236 26.1669C11.2178 26.7872 12.6963 27.0795 14.2619 27.389L14.4451 27.4253C14.8762 27.5106 14.9921 27.6278 15.022 27.6742C15.0773 27.7604 15.0484 27.9302 15.0262 28.0238C15.0057 28.1101 14.9846 28.1962 14.9635 28.2824C14.7954 28.9678 14.6216 29.6767 14.7581 30.4583C14.9151 31.3567 15.4761 31.872 16.2974 31.8721H16.2976C17.181 31.8721 18.1864 31.2795 18.8516 30.8875L18.9404 30.8352C20.5275 29.9032 22.0227 28.8518 23.1479 28.04C25.6102 26.2635 28.4011 24.2499 30.4935 21.6449C32.6005 19.0212 33.593 15.6497 33.2234 12.3811ZM10.8513 17.3519H8.03886C7.61384 17.3519 7.26929 17.0073 7.26929 16.5823V10.679C7.26929 10.254 7.61384 9.90942 8.03886 9.90942C8.46388 9.90942 8.80843 10.254 8.80843 10.679V15.8127H10.8512C11.2762 15.8127 11.6208 16.1573 11.6208 16.5823C11.6209 17.0073 11.2763 17.3519 10.8513 17.3519ZM13.7853 16.5614C13.7853 16.9864 13.4407 17.331 13.0157 17.331C12.5907 17.331 12.2461 16.9864 12.2461 16.5614V10.6581C12.2461 10.2331 12.5907 9.88854 13.0157 9.88854C13.4407 9.88854 13.7853 10.2331 13.7853 10.6581V16.5614ZM20.7416 16.5614C20.7416 16.8949 20.5269 17.1904 20.2097 17.2934C20.1314 17.3188 20.0513 17.3311 19.9721 17.3311C19.7303 17.3311 19.4968 17.2169 19.3492 17.0136L16.5779 13.1968V16.5615C16.5779 16.9865 16.2334 17.3311 15.8084 17.3311C15.3833 17.3311 15.0388 16.9865 15.0388 16.5615V10.8271C15.0388 10.4936 15.2535 10.1981 15.5707 10.0951C15.888 9.99221 16.2353 10.105 16.4312 10.3749L19.2024 14.1917V10.6581C19.2024 10.2331 19.547 9.88854 19.972 9.88854C20.397 9.88854 20.7416 10.2331 20.7416 10.6581V16.5614ZM26.3492 17.2098H22.5404C22.1154 17.2098 21.7708 16.8653 21.7708 16.4403V13.4887V10.537C21.7708 10.1119 22.1154 9.76738 22.5404 9.76738H26.231C26.6561 9.76738 27.0006 10.1119 27.0006 10.537C27.0006 10.962 26.6561 11.3065 26.231 11.3065H23.31V12.7191H25.6805C26.1055 12.7191 26.45 13.0637 26.45 13.4887C26.45 13.9137 26.1055 14.2583 25.6805 14.2583H23.31V15.6707H26.3492C26.7743 15.6707 27.1188 16.0152 27.1188 16.4403C27.1188 16.8653 26.7743 17.2098 26.3492 17.2098Z" fill="white"/>
</svg>
