<svg width="34" height="32" viewBox="0 0 34 32" fill="none" xmlns="http://www.w3.org/2000/svg">
<path fill-rule="evenodd" clip-rule="evenodd" d="M30.0737 0.192749C30.4792 0.02208 30.923 -0.0367824 31.359 0.0222872C31.795 0.0813569 32.2071 0.2562 32.5526 0.528617C32.8981 0.801035 33.1642 1.16107 33.3233 1.57124C33.4824 1.98142 33.5287 2.42674 33.4573 2.86086L29.7357 25.4348C29.3747 27.6122 26.9855 28.861 24.9886 27.7763C23.3181 26.8689 20.8371 25.4708 18.6055 24.0121C17.4896 23.2819 14.0716 20.9436 14.4917 19.2797C14.8527 17.8571 20.5959 12.511 23.8777 9.33258C25.1658 8.08385 24.5783 7.36349 23.0572 8.51212C19.2799 11.364 13.2151 15.7009 11.2099 16.9217C9.44101 17.9982 8.51883 18.182 7.41614 17.9982C5.40439 17.6634 3.53869 17.1449 2.01593 16.5132C-0.0417615 15.6599 0.0583336 12.831 2.01429 12.0072L30.0737 0.192749Z" fill="white"/>
</svg>
